<?xml version="1.0" encoding="UTF-8" standalone="no"?>
<svg
   height="16"
   viewBox="0 0 76 16"
   width="76"
   version="1.1"
   id="svg2"
   sodipodi:docname="xdg-system.svg"
   xml:space="preserve"
   inkscape:version="1.3.2 (091e20ef0f, 2023-11-25)"
   xmlns:inkscape="http://www.inkscape.org/namespaces/inkscape"
   xmlns:sodipodi="http://sodipodi.sourceforge.net/DTD/sodipodi-0.dtd"
   xmlns="http://www.w3.org/2000/svg"
   xmlns:svg="http://www.w3.org/2000/svg"><defs
     id="defs2" /><sodipodi:namedview
     id="namedview2"
     pagecolor="#505050"
     bordercolor="#ffffff"
     borderopacity="1"
     inkscape:showpageshadow="0"
     inkscape:pageopacity="0"
     inkscape:pagecheckerboard="1"
     inkscape:deskcolor="#d1d1d1"
     showgrid="true"
     inkscape:current-layer="svg2"><inkscape:grid
       id="grid2"
       units="px"
       originx="0"
       originy="0"
       spacingx="1"
       spacingy="1"
       empcolor="#3f3fff"
       empopacity="0.25098039"
       color="#3f3fff"
       opacity="0.1254902"
       empspacing="5"
       dotted="false"
       gridanglex="30"
       gridanglez="30"
       visible="true" /></sodipodi:namedview><g
     fill="#2e3436"
     id="g2"
     transform="translate(2)"
     style="fill:#ffffff"><path
       d="M 7,1.007812 C 6.703125,1.003906 6.421875,1.132812 6.230469,1.359375 L 3,5 H 2 C 0.90625,5 0,5.84375 0,7 v 2 c 0,1.089844 0.910156,2 2,2 h 1 l 3.230469,3.640625 C 6.441406,14.894531 6.722656,15.003906 7,15 Z m 3.039062,2.980469 C 9.816406,3.980469 9.585938,4.046875 9.394531,4.191406 9.132812,4.390625 9,4.691406 9,4.996094 V 5.0625 c 0.011719,0.1875 0.078125,0.371094 0.199219,0.527344 1.074219,1.429687 1.074219,3.390625 0,4.816406 C 9.078125,10.566406 9.011719,10.75 9,10.9375 v 0.06641 c 0,0.304688 0.132812,0.605469 0.394531,0.804688 0.441407,0.332031 1.066407,0.242187 1.398438,-0.199219 C 11.597656,10.542969 12,9.273438 12,8 12,6.726562 11.597656,5.457031 10.792969,4.386719 10.609375,4.140625 10.328125,4.003906 10.039062,3.988281 Z m 0,0"
       id="path1"
       style="fill:#ffffff" /><path
       d="m 13.460938,1.96875 c -0.191407,-0.00391 -0.386719,0.054688 -0.558594,0.167969 -0.457032,0.3125 -0.578125,0.933593 -0.269532,1.390625 1.824219,2.707031 1.824219,6.238281 0,8.945312 -0.308593,0.457032 -0.1875,1.078125 0.269532,1.390625 0.457031,0.308594 1.078125,0.1875 1.390625,-0.269531 C 15.429688,11.902344 16,9.953125 16,8 16,6.046875 15.429688,4.097656 14.292969,2.40625 14.097656,2.121094 13.78125,1.96875 13.460938,1.96875 Z m 0,0"
       fill-opacity="0.34902"
       id="path2"
       style="fill:#ffffff" /></g><g
     id="g1"
     transform="translate(20)"
     style="fill:#ffffff"><path
       class="success"
       d="m 5,8 v 5 H 8 V 12 C 8,11.46875 8.210938,10.960938 8.585938,10.585938 L 11,8.171875 V 8 Z m 0,0"
       fill="#33d17a"
       id="path1-6"
       style="fill:#33d17a" /><path
       d="M 7,0 C 6,0 6,1 6,1 V 2 H 5 C 5,2 4.292969,1.984375 3.554688,2.355469 2.8125,2.726562 2,3.667969 2,5 v 8 C 2,13 1.984375,13.707031 2.355469,14.449219 2.726562,15.1875 3.667969,16 5,16 h 5 V 14 H 5 C 4.445312,14 4,13.554688 4,13 V 5 C 4,4.445312 4.445312,4 5,4 h 6 c 0.554688,0 1,0.445312 1,1 v 2 h 2 V 5 C 14,3.667969 13.1875,2.726562 12.449219,2.355469 11.707031,1.984375 11,2 11,2 H 10 V 1 C 10,0 9,0 9,0 Z m 6,8 V 8.00781 C 12.734375,8.0039 12.480469,8.109373 12.292969,8.292967 l -3,3 C 9.105469,11.480469 9,11.734375 9,12 v 1 h 3.132812 l -0.964843,1.445312 C 11.0625,14.609375 11.003906,14.804688 11.007812,15 H 11 v 1 h 1 v -0.0039 c 0.265625,0 0.519531,-0.101563 0.707031,-0.289063 l 3,-3 C 15.894531,12.519531 15.996094,12.265625 15.996094,12 H 16 V 11 H 12.871094 L 13.832031,9.554688 C 13.941406,9.390625 14,9.195312 14,9 V 8 Z m 0,0"
       fill="#2e3434"
       id="path2-2"
       style="fill:#ffffff" /></g><path
     d="m 47.738285,2.300782 c -2.617188,0 -5.238281,0.933593 -7.195312,2.808593 L 40.046879,5.589844 C 39.648441,5.96875 39.636723,6.601563 40.015629,7 c 0.382812,0.398438 1.015625,0.410156 1.414062,0.03125 l 0.5,-0.476562 c 3.085938,-2.957032 8.53125,-2.957032 11.617188,0 l 0.5,0.476562 C 54.445316,7.410156 55.078129,7.398438 55.460941,7 55.839847,6.601563 55.828129,5.96875 55.429691,5.589844 L 54.933597,5.105469 C 52.976566,3.234375 50.355473,2.300782 47.738285,2.300782 Z m -0.03516,4.007812 C 46.136719,6.320313 44.578125,6.9375 43.5,8.121094 L 43,8.671875 c -0.179688,0.195313 -0.277344,0.453125 -0.261719,0.71875 0.01172,0.265625 0.128906,0.515625 0.328125,0.695313 0.195313,0.179687 0.453125,0.273437 0.71875,0.257812 0.265625,-0.01172 0.515625,-0.128906 0.695313,-0.328125 L 44.976562,9.46875 C 46.253906,8.066406 49.136719,7.972656 50.5,9.47266 l 0.5,0.542969 c 0.175781,0.199215 0.425781,0.316403 0.691406,0.328121 0.265625,0.01563 0.523437,-0.07813 0.722656,-0.257812 0.195313,-0.179688 0.3125,-0.429688 0.324219,-0.695313 0.01172,-0.261719 -0.08203,-0.523437 -0.261719,-0.71875 l -0.5,-0.546875 C 50.855473,6.890625 49.273441,6.296875 47.707035,6.308594 Z m 0.03516,4 c -0.511719,0 -1.023438,0.195312 -1.414062,0.585938 -0.78125,0.78125 -0.78125,2.046874 0,2.828124 0.78125,0.78125 2.046874,0.78125 2.828124,0 0.78125,-0.78125 0.78125,-2.046874 0,-2.828124 -0.390624,-0.390626 -0.902343,-0.585938 -1.414062,-0.585938 z m 0,0"
     fill="#2e3436"
     id="path1-9"
     style="fill:#ffffff" /><path
     d="m 67.057652,0.320312 c -0.550781,0 -1,0.449219 -1,1 v 5 c 0,0.550781 0.449219,1 1,1 0.550781,0 1,-0.449219 1,-1 v -5 c 0,-0.550781 -0.449219,-1 -1,-1 z m -3.136719,1.816406 c -0.128906,0.015625 -0.253906,0.058594 -0.367187,0.125 -2.734375,1.582032 -4.074219,4.816406 -3.257813,7.871094 0.820313,3.050781 3.59375,5.183594 6.75,5.1875 3.160157,0.0039 5.941407,-2.121094 6.765625,-5.167969 0.828125,-3.050781 -0.5,-6.289062 -3.230468,-7.878906 -0.476563,-0.28125 -1.089844,-0.121094 -1.367188,0.359375 -0.132812,0.226562 -0.171875,0.5 -0.105469,0.757812 0.07031,0.257813 0.234375,0.476563 0.464844,0.609376 1.957031,1.140624 2.902344,3.441406 2.3125,5.628906 -0.59375,2.183594 -2.570313,3.695312 -4.832031,3.691406 -2.265625,-0.0039 -4.238282,-1.519531 -4.824219,-3.707031 C 61.64359,7.425781 62.592808,5.125 64.553746,3.992187 65.030308,3.714843 65.194371,3.105468 64.917027,2.628906 64.784214,2.398437 64.569371,2.230468 64.311558,2.164062 64.186558,2.128906 64.053746,2.121093 63.920933,2.136718 Z m 0,0"
     fill="#2e3436"
     id="path1-1"
     style="fill:#ffffff" /></svg>
